<?xml version="1.0" encoding="iso-8859-1"?>
<!-- Generator: Adobe Illustrator 19.0.0, SVG Export Plug-In . SVG Version: 6.00 Build 0)  -->
<svg version="1.1" id="Capa_1" xmlns="http://www.w3.org/2000/svg" xmlns:xlink="http://www.w3.org/1999/xlink" x="0px" y="0px"
	 viewBox="0 0 368 368" style="enable-background:new 0 0 368 368;" xml:space="preserve">
<g>
	<g>
		<path d="M351.576,16.424C341.072,5.832,327.016,0,312,0H56C40.976,0,26.904,5.84,16.448,16.392C5.84,26.904,0,40.976,0,56v256
			c0,15.024,5.84,29.096,16.392,39.552C26.904,362.16,40.976,368,56,368h256c15.024,0,29.096-5.84,39.552-16.392
			C362.16,341.096,368,327.024,368,312V56C368,40.984,362.168,26.928,351.576,16.424z M80,352H56c-10.728,0-20.76-4.16-28.288-11.76
			C20.16,332.76,16,322.728,16,312V160h48v72c0,4.416,3.584,8,8,8h8V352z M176,352H96V240h8c4.416,0,8-3.584,8-8v-72h48v72
			c0,4.416,3.584,8,8,8h8V352z M80,224v-56h16v56H80z M272,352h-80V240h8c4.416,0,8-3.584,8-8v-72h48v72c0,4.416,3.584,8,8,8h8V352z
			 M176,224v-56h16v56H176z M352,312c0,10.728-4.16,20.76-11.76,28.288C332.76,347.84,322.728,352,312,352h-24V240h8
			c4.416,0,8-3.584,8-8v-72h48V312z M272,224v-56h16v56H272z M352,144H16V56c0-10.728,4.16-20.76,11.76-28.288
			C35.24,20.16,45.272,16,56,16h256c10.728,0,20.76,4.16,28.24,11.712c0.016,0.016,0.032,0.032,0.048,0.048
			C347.84,35.24,352,45.272,352,56V144z"/>
	</g>
</g>
<g>
	<g>
		<path d="M312,48h-80c-4.416,0-8,3.584-8,8v48c0,4.416,3.584,8,8,8h80c4.416,0,8-3.584,8-8V56C320,51.584,316.416,48,312,48z
			 M304,96h-64V64h64V96z"/>
	</g>
</g>
<g>
	<g>
		<path d="M184,48c-4.416,0-8,3.584-8,8v48c0,4.416,3.584,8,8,8s8-3.584,8-8V56C192,51.584,188.416,48,184,48z"/>
	</g>
</g>
<g>
	<g>
		<path d="M136,48c-4.416,0-8,3.584-8,8v48c0,4.416,3.584,8,8,8s8-3.584,8-8V56C144,51.584,140.416,48,136,48z"/>
	</g>
</g>
<g>
	<g>
		<path d="M88,48H56c-4.416,0-8,3.584-8,8s3.584,8,8,8h32c4.416,0,8-3.584,8-8S92.416,48,88,48z"/>
	</g>
</g>
<g>
	<g>
		<path d="M88,96H56c-4.416,0-8,3.584-8,8s3.584,8,8,8h32c4.416,0,8-3.584,8-8S92.416,96,88,96z"/>
	</g>
</g>
<g>
</g>
<g>
</g>
<g>
</g>
<g>
</g>
<g>
</g>
<g>
</g>
<g>
</g>
<g>
</g>
<g>
</g>
<g>
</g>
<g>
</g>
<g>
</g>
<g>
</g>
<g>
</g>
<g>
</g>
</svg>
